<svg width="512" height="512" viewBox="0 0 512 512" fill="none" xmlns="http://www.w3.org/2000/svg" xmlns:xlink="http://www.w3.org/1999/xlink" class=""><rect id="r9" width="512" height="512" x="0" y="0" rx="128" fill="url(#ra)" stroke="#FFFFFF" stroke-width="0" stroke-opacity="100%" paint-order="stroke"></rect><clipPath id="clip"><use xlink:href="#r9"></use></clipPath><defs><linearGradient id="ra" gradientUnits="userSpaceOnUse" gradientTransform="rotate(45)" style="transform-origin: center center;"><stop stop-color="#8E2DE2"></stop><stop offset="1" stop-color="#4A00E0"></stop></linearGradient><radialGradient id="rb" cx="0" cy="0" r="1" gradientUnits="userSpaceOnUse" gradientTransform="translate(256) rotate(90) scale(512)"><stop stop-color="white"></stop><stop offset="1" stop-color="white" stop-opacity="0"></stop></radialGradient></defs><svg xmlns="http://www.w3.org/2000/svg" xmlns:xlink="http://www.w3.org/1999/xlink" viewBox="0,0,256,256" width="352" height="352" x="80" y="80" alignment-baseline="middle" style="color: rgb(255, 255, 255);"><g fill="#e0e7ff" fill-rule="nonzero" stroke="none" stroke-width="1" stroke-linecap="butt" stroke-linejoin="miter" stroke-miterlimit="10" stroke-dasharray="" stroke-dashoffset="0" font-family="none" font-weight="none" font-size="none" text-anchor="none" style="mix-blend-mode: normal;"><path d="M64,256c-35.34622,0 -64,-28.65378 -64,-64v-128c0,-35.34622 28.65378,-64 64,-64h128c35.34622,0 64,28.65378 64,64v128c0,35.34622 -28.65378,64 -64,64z" id="shape"></path></g><g fill="#4f46e5" fill-rule="nonzero" stroke="none" stroke-width="1" stroke-linecap="butt" stroke-linejoin="miter" stroke-miterlimit="10" stroke-dasharray="" stroke-dashoffset="0" font-family="none" font-weight="none" font-size="none" text-anchor="none" style="mix-blend-mode: normal;"><g transform="scale(3.55556,3.55556)"><path d="M36,10c-1.139,0 -2.27708,0.38661 -3.20508,1.16211l-21.27734,17.7793c-1.465,1.224 -1.96564,3.32881 -1.05664,5.00781c1.251,2.309 4.20051,2.79122 6.10352,1.19922l18.79492,-15.70313c0.371,-0.31 0.91025,-0.31 1.28125,0l18.79492,15.70313c0.748,0.626 1.6575,0.92969 2.5625,0.92969c1.173,0 2.33591,-0.51091 3.12891,-1.50391c1.377,-1.724 0.98597,-4.27055 -0.70703,-5.68555l-2.41992,-2.02148v-10.19922c0,-1.473 -1.19402,-2.66797 -2.66602,-2.66797h-2.66602c-1.473,0 -2.66797,1.19497 -2.66797,2.66797v3.51367l-10.79492,-9.01953c-0.928,-0.7755 -2.06608,-1.16211 -3.20508,-1.16211zM35.99609,22.92578l-22,18.37695v8.69727c0,4.418 3.582,8 8,8h28c4.418,0 8,-3.582 8,-8v-8.69727zM32,38h8c1.105,0 2,0.895 2,2v10h-12v-10c0,-1.105 0.895,-2 2,-2z"></path></g></g></svg></svg>