<svg xmlns="http://www.w3.org/2000/svg" enable-background="new 0 0 512 512" viewBox="0 0 512 512" id="baby"><path d="M178 160h-13c-16 0-29-13-29-29s13-29 29-29h13c2.8 0 5 2.2 5 5v48C183 157.8 180.8 160 178 160zM165 112c-10.5 0-19 8.5-19 19s8.5 19 19 19h8v-38H165zM347 160h-13c-2.8 0-5-2.2-5-5v-48c0-2.8 2.2-5 5-5h13c16 0 29 13 29 29S363 160 347 160zM339 150h8c10.5 0 19-8.5 19-19s-8.5-19-19-19h-8V150z" fill="#4338ca" class="color000000 svgShape"></path><rect width="10" height="19" x="231" y="134" fill="#4338ca" class="color000000 svgShape"></rect><rect width="10" height="19" x="271" y="134" fill="#4338ca" class="color000000 svgShape"></rect><path d="M256 186.3c-8.5 0-17-3.2-23.5-9.7l7.1-7.1c9.1 9.1 23.9 9.1 32.9 0l7.1 7.1C273 183 264.5 186.3 256 186.3zM254.5 58h-3.7C234.9 58 222 45.1 222 29.2c0-9.5 7.7-17.2 17.2-17.2 1.3 0 2.5-.3 3.6-1l17.6-10.3c1.5-.9 3.4-.9 5-.1 1.5.9 2.5 2.5 2.6 4.2l.3 12.4 15.9-2.4c1.7-.3 3.4.4 4.5 1.7 1.1 1.3 1.5 3.1 1 4.7l-4.1 13.6C281.5 48.7 269 58 254.5 58zM258.2 13.6l-10.4 6.1c-2.6 1.5-5.6 2.4-8.7 2.4-4 0-7.2 3.2-7.2 7.2 0 10.4 8.4 18.8 18.8 18.8h3.7c10 0 18.7-6.4 21.6-16l1.8-6.1-13.7 2.1c-1.4.2-2.9-.2-4-1.1-1.1-.9-1.8-2.3-1.8-3.7L258.2 13.6zM103 512c-18.2 0-33-14.8-33-33v-24c0-18.2 14.8-33 33-33s33 14.8 33 33v24C136 497.2 121.2 512 103 512zM103 432c-12.7 0-23 10.3-23 23v24c0 12.7 10.3 23 23 23s23-10.3 23-23v-24C126 442.3 115.7 432 103 432zM409 512c-18.2 0-33-14.8-33-33v-24c0-18.2 14.8-33 33-33s33 14.8 33 33v24C442 497.2 427.2 512 409 512zM409 432c-12.7 0-23 10.3-23 23v24c0 12.7 10.3 23 23 23s23-10.3 23-23v-24C432 442.3 421.7 432 409 432z" fill="#4338ca" class="color000000 svgShape"></path><path d="M383.1,445l-4.5-2C361.2,435.2,350,418,350,399V287c0-27-22-49-49-49v-10c32.5,0,59,26.5,59,59v112c0,15,8.9,28.7,22.6,34.8l4.5,2L383.1,445z" fill="#4338ca" class="color000000 svgShape"></path><rect width="306" height="10" x="103" y="502" fill="#4338ca" class="color000000 svgShape"></rect><path d="M128.9,445l-4.1-9.1l4.5-2C143.1,427.7,152,414,152,399V287c0-24.3,14.6-45.8,37.1-54.8l3.7,9.3c-18.7,7.5-30.9,25.3-30.9,45.5v112c0,19-11.2,36.2-28.5,43.9L128.9,445z" fill="#4338ca" class="color000000 svgShape"></path><path d="M184,452c-17.6,0-32-14.4-32-32v-13c0-2.8,2.2-5,5-5h54c2.8,0,5,2.2,5,5v13C216,437.6,201.6,452,184,452z M162,412v8c0,12.1,9.9,22,22,22s22-9.9,22-22v-8H162z" fill="#4338ca" class="color000000 svgShape"></path><rect width="10" height="120" x="296" y="287" fill="#4338ca" class="color000000 svgShape"></rect><rect width="10" height="120" x="206" y="287" fill="#4338ca" class="color000000 svgShape"></rect><path d="M328,452c-17.6,0-32-14.4-32-32v-13c0-2.8,2.2-5,5-5h34v10h-29v8c0,12.1,9.9,22,22,22s22-9.9,22-22v-28h10v28C360,437.6,345.6,452,328,452z" fill="#4338ca" class="color000000 svgShape"></path><g fill="#4338ca" class="color000000 svgShape"><path d="M256,238c-45.8,0-83-37.2-83-83v-48c0-17,5.1-33.4,14.8-47.3c9.5-13.6,22.6-24,37.9-30l3.6,9.3C201.2,50,183,76.7,183,107v48c0,40.3,32.7,73,73,73s73-32.7,73-73v-48c0-31.3-19.9-59.1-49.6-69.2l3.2-9.5c33.7,11.4,56.4,43,56.4,78.6v48C339,200.8,301.8,238,256,238z" fill="#4338ca" class="color000000 svgShape"></path></g><g fill="#4338ca" class="color000000 svgShape"><path d="M226.3,258.9c-4,0-7.9-1.2-11.5-3.5c-7.8-5.1-11.2-14.1-8.7-23v-13.6h10V233c0,0.5-0.1,1-0.2,1.5c-1.8,5.8,1.1,10.3,4.4,12.5c3.4,2.2,8.6,3.1,13.2-0.9l19.3-16.8c1.9-1.6,4.7-1.6,6.6,0l19.3,16.8c4.6,4,9.8,3.1,13.2,0.9c3.4-2.2,6.3-6.6,4.4-12.5c-0.2-0.5-0.2-1-0.2-1.5v-14.3h10v13.6c2.5,8.9-0.9,17.9-8.7,23c-8.1,5.3-18,4.6-25.2-1.7l-16-14l-16,14C236,257.1,231.2,258.9,226.3,258.9z" fill="#4338ca" class="color000000 svgShape"></path></g></svg>