<?xml version="1.0" standalone="no"?>
<svg viewBox="0 0 200 200" xmlns="http://www.w3.org/2000/svg">
  <path fill="#22C55E" d="M39.5,-67.7C52.1,-61.1,63.9,-52.4,73.8,-40.8C83.7,-29.1,91.6,-14.6,91.4,-0.1C91.2,14.3,82.7,28.6,73.6,41.6C64.5,54.6,54.7,66.2,42.4,75.6C30,85.1,15,92.3,0.9,90.7C-13.2,89.2,-26.4,78.8,-40.5,70.4C-54.6,61.9,-69.6,55.4,-74.8,44C-80.1,32.6,-75.6,16.3,-69.8,3.4C-64,-9.6,-56.8,-19.1,-52.7,-32.4C-48.5,-45.8,-47.3,-62.8,-39,-72C-30.7,-81.1,-15.4,-82.4,-1,-80.7C13.4,-79,26.8,-74.4,39.5,-67.7Z" transform="translate(100 100)" />
</svg>
