<svg xmlns="http://www.w3.org/2000/svg" enable-background="new 0 0 96 96" viewBox="0 0 96 96" id="chef"><path d="M89,55h-2v-3c0-0.552-0.448-1-1-1h-1.075c-0.487-3.387-3.405-6-6.925-6s-6.433,2.613-6.92,6H70c-0.552,0-1,0.448-1,1v3h-4
		v-6c0-2.757-2.243-5-5-5h-7v-1.522c2.182-1.464,3.69-3.856,3.956-6.606C58.699,35.44,60,33.875,60,32c0-1.858-1.28-3.411-3-3.858
		v-3.043l0.833-4.163C60.748,20.528,63,18.025,63,15c0-3.309-2.691-6-6-6c-0.375,0-0.741,0.046-1.101,0.112
		C54.068,7.223,51.213,6,48,6s-6.068,1.223-7.899,3.112C39.741,9.046,39.375,9,39,9c-3.309,0-6,2.691-6,6
		c0,3.025,2.252,5.528,5.167,5.936L39,25.099v3.043c-1.72,0.447-3,2-3,3.858c0,1.875,1.301,3.44,3.044,3.872
		c0.266,2.75,1.774,5.143,3.956,6.606V44h-7c-2.757,0-5,2.243-5,5v6h-4v-3c0-0.552-0.448-1-1-1h-1.075c-0.487-3.387-3.405-6-6.925-6
		s-6.433,2.613-6.92,6H10c-0.552,0-1,0.448-1,1v3H7c-0.552,0-1,0.448-1,1v4c0,0.552,0.448,1,1,1h3v28c0,0.552,0.448,1,1,1h74
		c0.552,0,1-0.448,1-1V61h3c0.552,0,1-0.448,1-1v-4C90,55.448,89.552,55,89,55z M78,47c2.415,0,4.435,1.721,4.899,4h-9.799
		C73.565,48.721,75.585,47,78,47z M71,53h1h12c0.007-0.001,0.013,0,0.02,0H85v2H71V53z M35,15c0-2.111,1.649-3.827,3.724-3.972
		C38.261,11.948,38,12.949,38,14c0,0.552,0.448,1,1,1s1-0.448,1-1c0-1.152,0.443-2.226,1.196-3.141
		c0.006-0.007,0.012-0.015,0.019-0.022C42.628,9.137,45.138,8,48,8c2.861,0,5.369,1.136,6.784,2.834
		c0.007,0.009,0.014,0.018,0.021,0.027C55.558,11.776,56,12.849,56,14c0,0.552,0.448,1,1,1s1-0.448,1-1
		c0-1.051-0.261-2.052-0.724-2.972C59.351,11.173,61,12.889,61,15c0,2.206-1.794,4-4,4c-0.016,0-0.026,0.017-0.042,0.02
		c-0.451,0.019-0.847,0.323-0.939,0.784L55.18,24H40.82l-0.839-4.196c-0.092-0.46-0.488-0.765-0.938-0.784
		C39.027,19.017,39.016,19,39,19C36.794,19,35,17.206,35,15z M55,26v2H41v-2H55z M41,35c0-0.552-0.448-1-1-1c-1.103,0-2-0.897-2-2
		s0.897-2,2-2h16c1.103,0,2,0.897,2,2s-0.897,2-2,2c-0.552,0-1,0.448-1,1c0,3.86-3.14,7-7,7S41,38.86,41,35z M51,43.475v1.275
		c0,0.042,0.002,0.088-0.008,0.188C50.894,46.515,49.58,47.75,48,47.75s-2.894-1.235-2.998-2.87C44.998,44.838,45,44.792,45,44.75
		v-1.275C45.94,43.809,46.947,44,48,44S50.06,43.809,51,43.475z M33,49c0-1.654,1.346-3,3-3h7.162
		c0.559,2.164,2.527,3.75,4.838,3.75c2.324,0,4.299-1.606,4.841-3.75H60c1.654,0,3,1.346,3,3v6h-4v-2c0-0.552-0.448-1-1-1
		s-1,0.448-1,1v2H39v-2c0-0.552-0.448-1-1-1s-1,0.448-1,1v2h-4V49z M18,47c2.415,0,4.435,1.721,4.899,4h-9.799
		C13.565,48.721,15.585,47,18,47z M11,53h1h12c0.006-0.001,0.013,0,0.02,0H25v2H11V53z M84,88H12V61h72V88z M88,59h-3H11H8v-2h2h16
		h6h32h6h16h2V59z" fill="#4338ca" class="color000000 svgShape"></path><path d="M47,21v-4c0-0.552,0.448-1,1-1s1,0.448,1,1v4c0,0.552-0.448,1-1,1S47,21.552,47,21z M43.051,21.316
		C43.191,21.735,43.581,22,44,22c0.104,0,0.211-0.017,0.316-0.052c0.524-0.175,0.807-0.741,0.632-1.265l-1-3
		c-0.175-0.523-0.74-0.807-1.265-0.632c-0.524,0.175-0.807,0.741-0.632,1.265L43.051,21.316z M51.684,21.949
		C51.789,21.984,51.896,22,52,22c0.419,0,0.809-0.265,0.949-0.684l1-3c0.175-0.524-0.108-1.09-0.632-1.265
		c-0.525-0.175-1.09,0.109-1.265,0.632l-1,3C50.876,21.208,51.16,21.774,51.684,21.949z" fill="#4338ca" class="color000000 svgShape"></path></svg>