<svg xmlns="http://www.w3.org/2000/svg" viewBox="0 0 512 512" id="Cleaning"><path d="M488,400H440.968A37.8,37.8,0,0,0,448,378V296H432v82a22.025,22.025,0,0,1-22,22H384V256h48v24h16V256h14a18.021,18.021,0,0,0,18-18V216a8,8,0,0,0-8-8H456V176a8.031,8.031,0,0,0-.337-2.3L432,94.826V63.851c0-.052,0-.1,0-.157l0-.064a7.951,7.951,0,0,0-.63-2.767L415.428,21.029A8,8,0,0,0,408,16H360a8,8,0,0,0-8,8v8H336V48h16v8a8,8,0,0,0,3.687,6.738L344.845,84.422l14.31,7.156L370.91,68.07l5.09,1.7V94.46l-31.428,78.569A8,8,0,0,0,344,176v32H320V98a18.021,18.021,0,0,0-18-18h-6V40a8,8,0,0,0-8-8H256a8,8,0,0,0-8,8V80h-6a18.021,18.021,0,0,0-18,18V208H200V128h-.443c-3.132-13.932-22.53-24-47.557-24-19.915,0-36.266,6.376-43.692,16H64a8,8,0,0,0-8,8v80H40a8,8,0,0,0-8,8v22a18.021,18.021,0,0,0,18,18H64V378a37.8,37.8,0,0,0,7.032,22H24a8,8,0,0,0-8,8v12a28.032,28.032,0,0,0,28,28H84.3a32,32,0,1,0,55.41,0H168V432H44a12.013,12.013,0,0,1-12-12v-4H480v4a12.013,12.013,0,0,1-12,12H184v16H372.3a32,32,0,1,0,55.41,0H468a28.032,28.032,0,0,0,28-28V408A8,8,0,0,0,488,400ZM128,464a16,16,0,1,1-16-16A16.019,16.019,0,0,1,128,464Zm28-104a27.836,27.836,0,0,0-12,2.7V336H248v26.7a27.836,27.836,0,0,0-12-2.7Zm92-104v26.7a27.836,27.836,0,0,0-12-2.7H156a27.836,27.836,0,0,0-12,2.7V256Zm120,64H264V308a12.013,12.013,0,0,1,12-12h80a12.013,12.013,0,0,1,12,12ZM144,308a12.013,12.013,0,0,1,12-12h80a12.013,12.013,0,0,1,12,12v12H144Zm120,28H368v26.7a27.836,27.836,0,0,0-12-2.7H276a27.836,27.836,0,0,0-12,2.7Zm104-53.3a27.836,27.836,0,0,0-12-2.7H276a27.836,27.836,0,0,0-12,2.7V256H368ZM392,72h24V88H392ZM368,32h34.583l9.6,24H385.3L368,50.234Zm-8,145.541L389.417,104h28.631L440,177.174V208H360ZM240,136h64v32H240Zm24-88h16V80H264ZM242,96h60a2,2,0,0,1,2,2v22H240V98A2,2,0,0,1,242,96Zm-2,88h64v24H240ZM120,153.218c8.371,4.262,19.481,6.782,32,6.782s23.629-2.52,32-6.782V208H120ZM152,120c19.851,0,32,7.77,32,12s-12.149,12-32,12-32-7.77-32-12S132.149,120,152,120ZM72,136h32v72H72ZM48,238V224H464v14a2,2,0,0,1-2,2H50A2,2,0,0,1,48,238Zm32,58H96v24H80Zm0,82V336h24a8,8,0,0,0,8-8V288a8,8,0,0,0-8-8H80V256h48V400H102A22.025,22.025,0,0,1,80,378Zm64,10a12.013,12.013,0,0,1,12-12h80a12.013,12.013,0,0,1,12,12v12H144Zm120,0a12.013,12.013,0,0,1,12-12h80a12.013,12.013,0,0,1,12,12v12H264Zm152,76a16,16,0,1,1-16-16A16.019,16.019,0,0,1,416,464Z" fill="#4338ca" class="color000000 svgShape"></path><rect width="48" height="16" x="376" y="168" fill="#4338ca" class="color000000 svgShape"></rect></svg>