<svg id="visual" viewBox="0 0 900 600" width="900" height="600" xmlns="http://www.w3.org/2000/svg" xmlns:xlink="http://www.w3.org/1999/xlink" version="1.1"><rect x="0" y="0" width="900" height="600" fill="#fff"></rect><path d="M0 377L30 397.7C60 418.3 120 459.7 180 483.3C240 507 300 513 360 515.5C420 518 480 517 540 510.3C600 503.7 660 491.3 720 486C780 480.7 840 482.3 870 483.2L900 484L900 601L870 601C840 601 780 601 720 601C660 601 600 601 540 601C480 601 420 601 360 601C300 601 240 601 180 601C120 601 60 601 30 601L0 601Z" fill="#f0f9ff" stroke-linecap="round" stroke-linejoin="miter"></path></svg>