<svg xmlns="http://www.w3.org/2000/svg" version="1.1" xmlns:xlink="http://www.w3.org/1999/xlink" xmlns:svgjs="http://svgjs.dev/svgjs" width="2000" height="510" viewBox="0 0 2000 510"><g transform="matrix(1,0,0,1,-1.2121212121212466,-0.19713956220505224)"><svg viewBox="0 0 396 101" data-background-color="#ffffff" preserveAspectRatio="xMidYMid meet" height="510" width="2000" xmlns="http://www.w3.org/2000/svg" xmlns:xlink="http://www.w3.org/1999/xlink"><g id="tight-bounds" transform="matrix(1,0,0,1,0.2400000000000091,0.039041364279825075)"><svg viewBox="0 0 395.52 100.92191727144035" height="100.92191727144035" width="395.52"><g><svg viewBox="0 0 395.52 100.92191727144035" height="100.92191727144035" width="395.52"><g><svg viewBox="0 0 395.52 100.92191727144035" height="100.92191727144035" width="395.52"><g id="textblocktransform"><svg viewBox="0 0 395.52 100.92191727144035" height="100.92191727144035" width="395.52" id="textblock"><g><svg viewBox="0 0 395.52 100.92191727144035" height="100.92191727144035" width="395.52"><g transform="matrix(1,0,0,1,0,0)"><svg width="395.52" viewBox="0.4 -33.556578947368415 159.96391304347827 40.75657894736842" height="100.92191727144035" data-palette-color="url(#2dc92a55-d1c3-42da-a137-8f1d4197a779)"><g class="wordmark-text-0" data-fill-palette-color="primary" id="text-0"></g></svg></g></svg></g></svg></g></svg></g><g></g></svg></g><defs></defs><mask id="575c3973-8da5-439c-a178-3fe4b827dbca"><g id="SvgjsG5431"><svg viewBox="0 0 395.52 100.92191727144035" height="100.92191727144035" width="395.52"><g><svg viewBox="0 0 395.52 100.92191727144035" height="100.92191727144035" width="395.52"><g><svg viewBox="0 0 395.52 100.92191727144035" height="100.92191727144035" width="395.52"><g id="SvgjsG5430"><svg viewBox="0 0 395.52 100.92191727144035" height="100.92191727144035" width="395.52" id="SvgjsSvg5429"><g><svg viewBox="0 0 395.52 100.92191727144035" height="100.92191727144035" width="395.52"><g transform="matrix(1,0,0,1,0,0)"><svg width="395.52" viewBox="0.4 -33.556578947368415 159.96391304347827 40.75657894736842" height="100.92191727144035" data-palette-color="url(#2dc92a55-d1c3-42da-a137-8f1d4197a779)"><g class="wordmark-text-0" data-fill-palette-color="primary" id="SvgjsG5428"><path d="M6.65-18.7L6.65-18.7Q6.35-18.7 6.15-18.9L6.15-18.9Q5.25-19.5 4.67-20.58 4.1-21.65 4.1-22.9L4.1-22.9Q4.1-24.15 4.8-25.4 5.5-26.65 7.15-27.6L7.15-27.6Q9.8-29.15 13.33-30.23 16.85-31.3 20.58-31.9 24.3-32.5 27.6-32.5L27.6-32.5Q28.9-32.5 30.68-32.25 32.45-32 34.13-31.35 35.8-30.7 36.9-29.58 38-28.45 38-26.7L38-26.7Q38-26.5 38-26.33 38-26.15 37.95-25.95L37.95-25.95Q37.95-25.5 37.7-25.5L37.7-25.5Q37.55-25.5 37.55-25.75L37.55-25.75Q37.55-25.9 37.58-26.05 37.6-26.2 37.6-26.35L37.6-26.35Q37.6-27.8 35.43-28.45 33.25-29.1 29.95-29.1L29.95-29.1Q27.1-29.1 23.75-28.68 20.4-28.25 17.13-27.5 13.85-26.75 11.15-25.78 8.45-24.8 6.83-23.63 5.2-22.45 5.2-21.2L5.2-21.2Q5.2-20.05 6.8-18.95L6.8-18.95Q6.9-18.9 6.9-18.8L6.9-18.8Q6.9-18.7 6.65-18.7ZM10.8 7.2L10.8 7.2Q10.55 7.2 10.55 6.65L10.55 6.65Q10.55 6.15 10.85 5.25L10.85 5.25Q11.2 4.3 11.88 2.9 12.55 1.5 13.5-0.25L13.5-0.25Q12.25-0.15 11.1 0.08 9.95 0.3 8.9 0.6L8.9 0.6Q7.7 0.9 6.38 1.48 5.05 2.05 3.83 2.53 2.6 3 1.7 3L1.7 3Q1.05 3 0.75 2.75L0.75 2.75Q0.4 2.5 0.4 1.65L0.4 1.65Q0.4 0.9 0.98-0.13 1.55-1.15 3.08-2.15 4.6-3.15 7.5-3.85L7.5-3.85Q8.6-4.15 10.18-4.3 11.75-4.45 13.6-4.45L13.6-4.45Q14.15-4.45 14.73-4.45 15.3-4.45 15.85-4.4L15.85-4.4Q17.65-7.5 19.73-10.83 21.8-14.15 23.85-17.3 25.9-20.45 27.63-22.98 29.35-25.5 30.48-26.98 31.6-28.45 31.85-28.45L31.85-28.45 32.3-28.45Q32.75-28.45 32.75-28.15L32.75-28.15Q32.75-27.85 32.2-27.15L32.2-27.15Q29.95-24.2 27.3-20.35 24.65-16.5 22-12.35 19.35-8.2 17.05-4.3L17.05-4.3Q19.9-4.05 22.45-3.23 25-2.4 26.63-0.9 28.25 0.6 28.25 2.95L28.25 2.95Q28.25 4.3 27.85 4.3L27.85 4.3Q27.6 4.3 27.7 3.8L27.7 3.8Q28 2.5 26.45 1.58 24.9 0.65 22.25 0.15 19.6-0.35 16.55-0.35L16.55-0.35Q16.1-0.35 15.65-0.35 15.2-0.35 14.75-0.3L14.75-0.3Q13.65 1.7 12.73 3.48 11.8 5.25 11.25 6.65L11.25 6.65Q11 7.2 10.8 7.2ZM31.45 4.45L31.45 4.45Q30.4 3.6 30 2.48 29.6 1.35 29.6 0.25L29.6 0.25Q29.6-1.6 30.42-4.5 31.25-7.4 32.65-10.6L32.65-10.6Q32.55-10.55 32.45-10.55L32.45-10.55Q32.2-10.55 31.92-11.13 31.65-11.7 31.65-12.35L31.65-12.35Q31.65-13.05 32.12-13.75 32.6-14.45 34-14.8L34-14.8Q34.3-14.9 34.8-15L34.8-15Q36.4-18 38.25-20.48 40.1-22.95 41.95-24.2L41.95-24.2Q43.1-25 44.37-25.38 45.65-25.75 46.9-25.75L46.9-25.75Q48.4-25.75 49.85-25.2 51.3-24.65 52.25-23.58 53.2-22.5 53.2-20.9L53.2-20.9 53.2-20.85Q53.2-20.65 53.05-20.65 52.9-20.65 52.8-20.9L52.8-20.9Q52.45-22.25 51.45-22.83 50.45-23.4 49.25-23.4L49.25-23.4Q48.3-23.4 47.35-23.1 46.4-22.8 45.7-22.35L45.7-22.35Q43.9-21.2 42.1-19.18 40.3-17.15 38.85-15.15L38.85-15.15Q40.2-15.05 41.27-14.7 42.35-14.35 42.85-13.95L42.85-13.95Q43.55-13.45 43.9-12.9L43.9-12.9Q44.1-12.55 44.1-12.3L44.1-12.3Q44.1-12 43.85-12L43.85-12Q43.7-12 43.4-12.15L43.4-12.15Q42.5-12.75 40.6-12.75L40.6-12.75Q39.8-12.75 38.85-12.63 37.9-12.5 36.85-12.2L36.85-12.2 36.2-11.25Q34.6-8.9 33.45-6.43 32.3-3.95 31.7-1.75 31.1 0.45 31.1 2.05L31.1 2.05Q31.1 3.45 31.7 4.2L31.7 4.2Q31.85 4.4 31.7 4.48 31.55 4.55 31.45 4.45ZM49.2 0.05L49.2 0.05Q47.05 0.05 46.3-0.78 45.55-1.6 45.55-2.6L45.55-2.6Q45.55-3.9 46.55-5.35L46.55-5.35Q47.15-6.2 47.9-7.28 48.65-8.35 49.3-9.3 49.95-10.25 50.2-10.65L50.2-10.65Q50.55-11.15 50.62-11.33 50.7-11.5 50.7-11.7L50.7-11.7Q50.7-12 50.32-12.28 49.95-12.55 49.09-12.55L49.09-12.55Q48.84-12.55 48.67-12.53 48.5-12.5 48.3-12.5L48.3-12.5Q47.9-12.5 47.84-12.55L47.84-12.55 47.7-12.35Q46.3-10.5 44.7-8.72 43.09-6.95 41.2-5.45L41.2-5.45Q40.99-5.3 40.9-5.3L40.9-5.3Q40.7-5.3 40.7-5.5L40.7-5.5Q40.7-5.9 41.3-6.4L41.3-6.4Q42.84-7.7 44.34-9.33 45.84-10.95 47.05-12.75L47.05-12.75Q46.59-13.05 46.59-13.95L46.59-13.95Q46.59-15.3 47.45-16.85L47.45-16.85Q48.05-17.9 48.77-18.43 49.5-18.95 50.05-18.95L50.05-18.95Q51.09-18.95 51.09-17.7L51.09-17.7Q51.09-16.9 50.5-15.7L50.5-15.7Q50.25-15.1 49.52-14.18 48.8-13.25 48.09-12.85L48.09-12.85Q49.15-13.2 50.77-13.33 52.4-13.45 53.5-13.45L53.5-13.45Q54.15-13.45 55.09-13.08 56.05-12.7 56.05-11.75L56.05-11.75Q56.05-11.1 55.45-10.35L55.45-10.35Q55.3-10.15 54.65-9.4 54-8.65 53.22-7.6 52.45-6.55 51.8-5.5L51.8-5.5Q51.15-4.55 50.77-3.75 50.4-2.95 50.4-2.4L50.4-2.4Q50.4-1.6 51.3-1.6L51.3-1.6Q52.34-1.6 54.09-2.6 55.84-3.6 57.87-5.18 59.89-6.75 61.59-8.45L61.59-8.45Q61.8-8.65 61.95-8.65L61.95-8.65Q62.15-8.65 62.15-8.4L62.15-8.4Q62.15-8.1 61.9-7.85L61.9-7.85Q60.14-6.1 58.02-4.28 55.9-2.45 53.62-1.2 51.34 0.05 49.2 0.05ZM62.49 0.05L62.49 0.05Q60.94 0.05 60.09-0.93 59.24-1.9 59.24-3.45L59.24-3.45Q59.24-4.9 60.02-6.65 60.79-8.4 62.49-10.2L62.49-10.2Q64.24-12.1 66.84-13.28 69.44-14.45 71.79-14.45L71.79-14.45Q73.69-14.45 75.04-13.63 76.39-12.8 76.84-11.55L76.84-11.55Q77.39-11.55 78.22-11.25 79.04-10.95 79.04-10.15L79.04-10.15Q79.04-9.6 78.49-8.9L78.49-8.9Q78.14-8.4 77.27-7.4 76.39-6.4 75.64-5.25L75.64-5.25Q75.04-4.35 74.69-3.58 74.34-2.8 74.34-2.25L74.34-2.25Q74.34-1.5 75.09-1.5L75.09-1.5Q75.94-1.5 77.64-2.45L77.64-2.45Q79.49-3.5 81.19-4.85 82.89-6.2 83.84-7L83.84-7Q84.09-7.2 84.19-7.2L84.19-7.2Q84.39-7.2 84.39-6.95L84.39-6.95Q84.39-6.65 84.14-6.4L84.14-6.4Q83.69-6 82.39-4.9 81.09-3.8 79.42-2.6 77.74-1.4 76.14-0.65L76.14-0.65Q75.34-0.3 74.67-0.13 73.99 0.05 73.44 0.05L73.44 0.05Q72.09 0.05 71.39-0.73 70.69-1.5 70.69-2.75L70.69-2.75Q70.69-3.25 70.84-3.8 70.99-4.35 71.19-4.9L71.19-4.9 71.54-5.75Q70.24-4.15 68.94-3.08 67.64-2 66.34-1.2L66.34-1.2Q65.24-0.55 64.27-0.25 63.29 0.05 62.49 0.05ZM64.04-1.25L64.04-1.25Q64.94-1.25 66.64-2.33 68.34-3.4 70.59-5.65L70.59-5.65Q70.89-5.95 71.72-6.73 72.54-7.5 73.49-8.47 74.44-9.45 75.12-10.43 75.79-11.4 75.79-12.05L75.79-12.05Q75.79-13 74.14-13L74.14-13Q72.69-13 70.67-11.88 68.64-10.75 66.79-8.55L66.79-8.55Q64.89-6.3 64.02-4.67 63.14-3.05 63.14-2.2L63.14-2.2Q63.14-1.25 64.04-1.25ZM83.29 0.25L83.29 0.25Q82.79 0.25 82.09 0.03 81.39-0.2 80.69-0.8L80.69-0.8Q81.24-1.55 82.27-2.83 83.29-4.1 84.44-5.65 85.59-7.2 86.59-8.75L86.59-8.75Q85.79-7.95 84.84-7.05 83.89-6.15 82.94-5.4L82.94-5.4Q82.74-5.2 82.49-5.2L82.49-5.2Q82.29-5.2 82.29-5.4L82.29-5.4Q82.29-5.65 82.69-6L82.69-6Q84.09-7.25 85.82-8.88 87.54-10.5 88.34-12.2L88.34-12.2Q88.59-12.8 88.59-13.3L88.59-13.3Q88.59-13.95 88.34-14.1L88.34-14.1Q88.14-14.25 88.14-14.5L88.14-14.5Q88.14-14.95 88.59-14.95L88.59-14.95Q88.84-14.95 88.99-14.85L88.99-14.85Q89.54-14.6 90.04-13.9 90.54-13.2 90.54-11.8L90.54-11.8Q90.54-11 90.34-9.98 90.14-8.95 89.64-7.65L89.64-7.65Q90.39-8.65 91.17-9.6 91.94-10.55 92.59-11.3L92.59-11.3Q93.94-12.85 95.32-13.53 96.69-14.2 97.79-14.2L97.79-14.2Q99.09-14.2 99.89-13.45 100.69-12.7 100.69-11.5L100.69-11.5Q100.69-10.55 100.19-9.55L100.19-9.55Q100.04-9.15 99.49-8.33 98.94-7.5 98.29-6.55 97.64-5.6 97.09-4.85L97.09-4.85Q96.44-4.05 96.19-3.48 95.94-2.9 95.94-2.55L95.94-2.55Q95.94-2.05 96.49-2.05L96.49-2.05Q97.19-2.05 98.44-2.8L98.44-2.8Q99.19-3.25 100.17-4.03 101.14-4.8 102.12-5.63 103.09-6.45 103.69-7L103.69-7Q103.89-7.2 104.04-7.2L104.04-7.2Q104.24-7.2 104.24-6.95L104.24-6.95Q104.24-6.65 103.99-6.4L103.99-6.4Q102.49-5 100.52-3.35 98.54-1.7 96.64-0.8L96.64-0.8Q95.09-0.05 93.79-0.05L93.79-0.05Q92.69-0.05 92.04-0.63 91.39-1.2 91.39-2.3L91.39-2.3Q91.39-3.1 91.79-4.2L91.79-4.2Q92.29-5.55 93.22-6.9 94.14-8.25 95.17-9.47 96.19-10.7 96.94-11.55L96.94-11.55Q97.59-12.25 97.59-12.75L97.59-12.75Q97.59-13.2 96.99-13.2L96.99-13.2Q96.39-13.2 95.22-12.53 94.04-11.85 92.59-10.35L92.59-10.35Q90.54-8.2 88.99-5.7 87.44-3.2 85.44-1L85.44-1Q84.34 0.25 83.29 0.25ZM108.24 0.5L108.24 0.5Q106.04 0.5 104.56-0.58 103.09-1.65 103.09-3.7L103.09-3.7Q103.09-5.9 104.14-7.8 105.19-9.7 106.94-11.13 108.69-12.55 110.76-13.35 112.84-14.15 114.89-14.15L114.89-14.15Q116.94-14.15 117.94-13.43 118.94-12.7 118.94-11.65L118.94-11.65Q118.94-10.65 118.01-9.53 117.09-8.4 115.34-7.55L115.34-7.55Q114.24-7.05 112.81-6.68 111.39-6.3 110.34-6.3L110.34-6.3Q109.54-6.3 109.54-6.55L109.54-6.55Q109.54-6.75 110.24-6.75L110.24-6.75Q110.89-6.75 112.26-7.13 113.64-7.5 114.94-8.15L114.94-8.15Q116.39-8.95 116.99-9.75 117.59-10.55 117.59-11.2L117.59-11.2Q117.59-11.8 117.11-12.2 116.64-12.6 115.79-12.6L115.79-12.6Q114.99-12.6 113.99-12.15L113.99-12.15Q112.54-11.5 111.01-10.03 109.49-8.55 108.49-6.8 107.49-5.05 107.49-3.45L107.49-3.45Q107.49-2.35 108.11-1.6 108.74-0.85 109.99-0.85L109.99-0.85Q111.29-0.85 112.99-1.68 114.69-2.5 116.44-3.73 118.19-4.95 119.69-6.2 121.19-7.45 122.09-8.3L122.09-8.3Q122.39-8.6 122.54-8.6L122.54-8.6Q122.69-8.6 122.69-8.35L122.69-8.35Q122.69-8 122.39-7.75L122.39-7.75Q120.49-6 118.26-4.1 116.04-2.2 113.51-0.88 110.99 0.45 108.24 0.5ZM113.44 4.75L113.44 4.75Q113.29 4.75 113.29 4.55L113.29 4.55Q113.29 4.2 113.64 3.7L113.64 3.7Q115.89 0.65 119.34-3.55 122.79-7.75 126.94-12.2L126.94-12.2Q125.99-14.7 125.54-17.32 125.09-19.95 125.09-22.25L125.09-22.25Q125.09-24.05 125.36-25.53 125.64-27 126.14-27.9L126.14-27.9Q126.39-28.35 127.14-28.8 127.89-29.25 128.79-29.53 129.69-29.8 130.29-29.8L130.29-29.8Q131.09-29.8 131.09-29.35L131.09-29.35Q131.09-29.15 130.84-28.75L130.84-28.75Q130.19-27.7 129.86-26.05 129.54-24.4 129.54-22.4L129.54-22.4Q129.54-19.25 130.24-15.65L130.24-15.65Q133.79-19.25 137.61-22.5 141.44-25.75 145.31-28.28 149.19-30.8 152.96-32.23 156.74-33.65 160.19-33.55L160.19-33.55Q160.39-33.55 160.36-33.35 160.34-33.15 160.14-33.15L160.14-33.15Q158.04-33.2 155.16-31.98 152.29-30.75 148.94-28.6 145.59-26.45 142.04-23.6L142.04-23.6Q139.19-21.35 136.31-18.82 133.44-16.3 130.69-13.65L130.69-13.65Q131.49-10.55 132.66-7.7 133.84-4.85 135.21-2.85 136.59-0.85 137.89-0.1L137.89-0.1Q139.04 0.5 140.24 0.5L140.24 0.5Q140.99 0.5 141.64 0.25 142.29 0 142.69-0.5L142.69-0.5Q142.79-0.6 142.89-0.6L142.89-0.6Q142.99-0.6 143.06-0.48 143.14-0.35 143.04-0.2L143.04-0.2Q142.29 0.75 141.39 0.98 140.49 1.2 139.34 1.2L139.34 1.2Q137.14 1.2 134.96-0.43 132.79-2.05 130.89-4.75 128.99-7.45 127.59-10.6L127.59-10.6Q124.59-7.65 121.96-4.85 119.34-2.05 117.36 0.25 115.39 2.55 114.24 4.1L114.24 4.1Q113.79 4.75 113.44 4.75Z" fill="white"></path></g></svg></g></svg></g></svg></g></svg></g><g></g></svg></g><defs><mask></mask></defs></svg><rect width="395.52" height="100.92191727144035" fill="black" stroke="none" visibility="hidden"></rect></g></mask><linearGradient x1="0.054" x2="0.941" y1="0.5" y2="0.5" id="2dc92a55-d1c3-42da-a137-8f1d4197a779"><stop stop-color="#0f3054" offset="0"></stop><stop stop-color="#3b8dcb" offset="0.498"></stop><stop stop-color="#0f3054" offset="1"></stop></linearGradient><rect width="395.52" height="100.92191727144035" fill="url(#2dc92a55-d1c3-42da-a137-8f1d4197a779)" mask="url(#575c3973-8da5-439c-a178-3fe4b827dbca)" data-fill-palette-color="primary"></rect></svg><rect width="395.52" height="100.92191727144035" fill="none" stroke="none" visibility="hidden"></rect></g></svg></g></svg>