<svg xmlns="http://www.w3.org/2000/svg" viewBox="0 0 168 168" id="PaintingDecoration"><circle cx="2" cy="150.333" r="2" fill="#4338ca" class="color2d4356 svgShape"></circle><path fill="#4338ca" d="M11 148.333H8a2 2 0 0 0 0 4h3a2 2 0 0 0 0-4zm149 0h-3a2 2 0 0 0 0 4h3a2 2 0 0 0 0-4z" class="color2d4356 svgShape"></path><circle cx="166" cy="150.333" r="2" fill="#4338ca" class="color2d4356 svgShape"></circle><path fill="#1a0bce" d="M118.154 156.333h-8.308a2.006 2.006 0 0 0 0 4h8.308a2.006 2.006 0 0 0 0-4zm-60 0h-8.308a2.006 2.006 0 0 0 0 4h8.308a2.006 2.006 0 0 0 0-4zm45.846 0H64a2 2 0 0 0 0 4h15.94v2H72a2 2 0 0 0 0 4h25a2 2 0 0 0 0-4h-8.94v-2H104a2 2 0 0 0 0-4z" class="color0bceb2 svgShape"></path><path fill="#4338ca" d="M32 32.333a4 4 0 0 0-4 4v84a4 4 0 0 0 4 4h23a4 4 0 0 0 4-4v-84a4 4 0 0 0-4-4Zm23 88H32v-84h7.25v37a7 7 0 0 0 14 0v-4.25a3.742 3.742 0 0 1 1.75-3.16Zm0-58.729a7.757 7.757 0 0 0-5.75 7.48v4.25a3 3 0 0 1-6 0v-37H55Z" class="color2d4356 svgShape"></path><path fill="#1a0bce" d="M105 88.333v-52a4 4 0 0 0-4-4H67a4 4 0 0 0-4 4v84a4 4 0 0 0 4 4h28.1a5.998 5.998 0 0 1 2.635-4H67v-54.73a6.758 6.758 0 0 1 4.875 6.48v6.125a12.134 12.134 0 0 0 7.887 11.346A11.907 11.907 0 0 1 85 88.334h5.653a12.119 12.119 0 0 0 5.472-10.126v-6.125a6.758 6.758 0 0 1 4.875-6.48v22.73Zm-12.875-16.25v6.125a8.125 8.125 0 1 1-16.25 0v-6.125A10.76 10.76 0 0 0 67 61.508V36.333h34v25.175a10.76 10.76 0 0 0-8.875 10.575Z" class="color0bceb2 svgShape"></path><path fill="#4338ca" d="M136 115.333v5h-1.765a7.985 7.985 0 0 1-6.235 3h-13.351a6.077 6.077 0 0 1 .253 1H136a4 4 0 0 0 4-4v-84a4 4 0 0 0-4-4h-23a4 4 0 0 0-4 4v52h4v-22.41a3.742 3.742 0 0 1 1.75 3.16v4.25a7 7 0 1 0 14 0v-37H136v79Zm-11.25-42a3 3 0 1 1-6 0v-4.25a7.757 7.757 0 0 0-5.75-7.479v-25.27h11.75Z" class="color2d4356 svgShape"></path><path fill="#4338ca" d="M24 132.333h70.42l.32-4H24v-100h120v100h-28.74l.32 4H144a4 4 0 0 0 4-4v-100a4 4 0 0 0-4-4H24a4 4 0 0 0-4 4v100a4 4 0 0 0 4 4Z" class="color2d4356 svgShape"></path><path fill="#4338ca" d="M150.721 148.333h-39.077a7.553 7.553 0 0 0 .871-4.14l-1.521-19.02a2 2 0 0 0-1.994-1.84h-2v-4h21a4.005 4.005 0 0 0 4-4v-11a4.005 4.005 0 0 0-4-4h-3a8.009 8.009 0 0 0-8-8H85a8.009 8.009 0 0 0-8 8v4a8.01 8.01 0 0 0 8 8h32a8.01 8.01 0 0 0 8-8h3v11h-21a4.005 4.005 0 0 0-4 4v4h-2a2 2 0 0 0-1.994 1.84l-1.521 19.02a7.553 7.553 0 0 0 .871 4.14H17.279a2.017 2.017 0 1 0 0 4H150.72a2.017 2.017 0 1 0 0-4zm-29.721-44a4 4 0 0 1-4 4H85a4 4 0 0 1-4-4v-4a4 4 0 0 1 4-4h32a4 4 0 0 1 4 4zm-18.6 42.862a3.503 3.503 0 0 1-.928-2.683l1.374-17.179h4.308l1.374 17.179a3.54 3.54 0 0 1-6.129 2.683zM68.304 8.333a3 3 0 1 0-3-3 3.003 3.003 0 0 0 3 3zm0-4.5a1.5 1.5 0 1 1-1.5 1.5 1.501 1.501 0 0 1 1.5-1.5zm94.362 43.5a2 2 0 1 0 2 2 2.002 2.002 0 0 0-2-2zm0 3a1 1 0 1 1 1-1 1.001 1.001 0 0 1-1 1zM131 1.667a2 2 0 1 0 2 2 2.002 2.002 0 0 0-2-2zm0 3a1 1 0 1 1 1-1 1.001 1.001 0 0 1-1 1zm22 26a2 2 0 1 0 2 2 2.002 2.002 0 0 0-2-2zm0 3a1 1 0 1 1 1-1 1.001 1.001 0 0 1-1 1zm-112.333-15a2 2 0 1 0-2 2 2.002 2.002 0 0 0 2-2zm-3 0a1 1 0 1 1 1 1 1.001 1.001 0 0 1-1-1z" class="color2d4356 svgShape"></path><path fill="#1a0bce" d="m7.785 37.154 1.487-1.955-.939-.532-.954 2.19h-.032l-.969-2.175-.956.548 1.472 1.909v.031l-2.301-.297v1.063l2.316-.297v.032l-1.487 1.908.892.564 1.018-2.207h.031l.938 2.191.987-.563-1.503-1.878v-.031l2.362.281v-1.063l-2.362.312v-.031zM5.468 4.46l-.856 1.099.514.324.586-1.27h.018l.54 1.261.568-.324-.865-1.082v-.017l1.36.162V4l-1.36.18v-.018l.856-1.126-.54-.306-.55 1.261h-.018l-.559-1.252-.55.315.848 1.099v.018L4.135 4v.613l1.333-.171v.018zM165.971 9.38V8.337l-2.316.306v-.03l1.458-1.918-.921-.522-.936 2.148h-.031l-.951-2.133-.937.537 1.443 1.873v.03l-2.257-.291V9.38l2.272-.291v.03l-1.458 1.872.874.553.999-2.164h.03l.921 2.149.967-.553-1.473-1.841v-.031l2.316.276zM97.081 17.919l1.258-1.654-.794-.451-.808 1.853h-.026l-.821-1.84-.808.464 1.245 1.615v.027l-1.947-.252v.9l1.96-.251v.026l-1.258 1.615.754.477.862-1.867h.025l.795 1.853.834-.476-1.271-1.589v-.026l1.999.238v-.9l-1.999.265v-.027z" class="color0bceb2 svgShape"></path></svg>