<svg xmlns="http://www.w3.org/2000/svg" viewBox="0 0 64 64" id="Qualification"><defs><linearGradient id="a" x1="3.974" x2="59.974" y1="32" y2="32" gradientUnits="userSpaceOnUse"><stop offset="0" stop-color="#a39cff" class="stopColor9cffac svgShape"></stop><stop offset="1" stop-color="#4338ca" class="stopColor00b59c svgShape"></stop></linearGradient></defs><path fill="url(#a)" d="M14.53291,31.10367h6.25076a1.0011,1.0011,0,0,1,.00006,2.00182H14.53291A1.00111,1.00111,0,0,1,14.53291,31.10367Zm12.13412,4.576H14.53291a1.0011,1.0011,0,0,0,.00007,2.00182H26.667A1.00111,1.00111,0,0,0,26.667,35.67963Zm0,4.57595H14.53291A1.0011,1.0011,0,0,0,14.533,42.2574H26.667A1.00111,1.00111,0,0,0,26.667,40.25558ZM49.58736,57.38743a10.38575,10.38575,0,0,1-6.55835-2.3283H6.50068A2.52922,2.52922,0,0,1,3.97444,52.5329V21.26462a2.52922,2.52922,0,0,1,2.52624-2.52624h7.53348l10.01211-6.77151a4.0422,4.0422,0,1,1,7.74727-.34148l10.52956,7.113h6.84005a2.5288,2.5288,0,0,1,2.52574,2.52624V36.72306C63.85247,39.54063,62.177,57.03218,49.58736,57.38743ZM27.8697,12.71384a2.04994,2.04994,0,0,0,.00009-4.09944A2.04994,2.04994,0,0,0,27.8697,12.71384ZM17.60639,18.73838H38.74745l-7.90658-5.34114a4.06073,4.06073,0,0,1-5.70661.24971ZM6.50068,53.0573H41.1402a10.406,10.406,0,0,1-1.36288-2.57412H11.07663A2.52922,2.52922,0,0,1,8.5504,47.957V25.84057a2.52922,2.52922,0,0,1,2.52623-2.52623H44.58671a2.52964,2.52964,0,0,1,2.52672,2.52623V36.819a9.97773,9.97773,0,0,1,2.57364-.30343V21.26462a.52436.52436,0,0,0-.52391-.52441H6.50068a.52479.52479,0,0,0-.52441.52441V52.5329A.52478.52478,0,0,0,6.50068,53.0573ZM45.1116,37.53282V25.84057a.52519.52519,0,0,0-.52489-.5244H11.07663a.52477.52477,0,0,0-.5244.5244V47.957a.52478.52478,0,0,0,.5244.5244h28.197A10.43676,10.43676,0,0,1,45.1116,37.53282Zm12.91219,9.416C57.60121,35.7746,41.574,35.77258,41.15,46.9487a8.43691,8.43691,0,0,0,16.87381.00011Zm-4.52172-3.85763L48.435,48.69688,45.62476,45.984a1.00081,1.00081,0,0,0-1.38989,1.43984l3.554,3.4318a1.00063,1.00063,0,0,0,1.43783-.04887l5.76112-6.3735A1.00125,1.00125,0,0,0,53.50207,43.09118Z"></path></svg>