<svg xmlns="http://www.w3.org/2000/svg" enable-background="new 0 0 64 64" viewBox="0 0 64 64" id="RepairTool"><path d="M57.5,40.6c-2.4-2.4-5.7-3.7-9.1-3.5c-0.6,0-1.2,0.1-1.9,0.3l-7.2-7.1L58.8,11l2.2-6.6l0-0.1c0.1-0.4,0-0.7-0.3-1l-0.4-0.4
		L59.7,3L53,5.2L33.6,24.6l-7.1-7c0.2-0.7,0.3-1.3,0.3-2c0.2-3.4-1.1-6.7-3.5-9.1c-3.2-3.2-8-4.3-12.3-2.8l-0.6,0.2L10.3,5l6.2,6.2
		l-5.2,5.2l-5.8-5.8c-0.3-0.3-0.6-0.4-1-0.3l-0.6,0.2l-0.2,0.5C2,16,3.7,21.4,7.8,24.5c2.1,1.5,4.6,2.3,7.1,2.3
		c0.9,0,1.8-0.1,2.7-0.3l3.8,3.8L4.8,46.9C3.6,48,3,49.6,3,51.2c0,1.6,0.6,3.1,1.8,4.3l3.7,3.7c1.1,1.1,2.7,1.8,4.3,1.8
		s3.1-0.6,4.3-1.8l1.6-1.6c0,0,0,0,0,0s0,0,0,0l13.7-13.7c0,0,0,0,0,0s0,0,0,0l1.2-1.2l3.8,3.9c-0.7,3.3,0,6.8,2,9.6
		c2.3,3.1,5.9,4.8,9.6,4.8c1.3,0,2.6-0.2,3.9-0.6c0.4-0.1,0.6-0.4,0.7-0.8l0.1-0.6l-6.2-6.2l5.2-5.2l5.8,5.8c0.3,0.3,0.6,0.4,1,0.3
		l0.6-0.2l0.2-0.5C61.8,48.6,60.8,43.9,57.5,40.6z M54.1,7l4.4-1.5L57,9.9l-19,19L35.1,26L54.1,7z M9,22.9c-3.1-2.3-4.5-6.1-3.9-9.7
		l5.3,5.3l0.3,0.3l0.9,0l6.8-6.8c0.2-0.2,0.3-0.5,0.3-0.8l0-0.5l-5.6-5.6c3.2-0.6,6.4,0.4,8.7,2.8c2,2,3.1,4.8,2.9,7.6
		c-0.2,2.9-1.5,5.4-3.7,7.2C17.6,25.5,12.6,25.6,9,22.9z M18,55.5l-1.9-1.9l12.3-12.3l1.9,1.9L18,55.5z M14.7,52.2l-2.9-2.9L24.1,37
		l2.9,2.9L14.7,52.2z M10.4,47.9L8.5,46l12.3-12.3l1.9,1.9L10.4,47.9z M12.8,59c-1.1,0-2.1-0.4-2.9-1.2l-3.7-3.7
		C5.4,53.3,5,52.3,5,51.2c0-1.1,0.4-2.1,1.2-2.9l0.9-0.9L9.7,50c0,0,0,0,0,0s0,0,0,0l6.9,6.9l-0.9,0.9C14.9,58.6,13.9,59,12.8,59z
		 M31.7,41.8l-9.5-9.5l0.5-0.5l9.4,9.5L31.7,41.8z M19.7,25.9c0.9-0.4,1.8-0.9,2.6-1.6c1.5-1.2,2.7-2.8,3.5-4.6l7.1,7c0,0,0,0,0,0
		c0,0,0,0,0,0l11.4,11.3c-1.8,0.8-3.4,2-4.7,3.5c-0.7,0.8-1.2,1.8-1.6,2.8L19.7,25.9z M58.9,50.8l-5.3-5.3c-0.4-0.4-1.1-0.4-1.5,0
		L45.5,52c-0.2,0.2-0.3,0.5-0.3,0.8l0,0.5l5.6,5.6c-3.7,0.6-7.4-0.8-9.7-3.9c-2.6-3.5-2.5-8.6,0.2-12.1c1.8-2.3,4.4-3.6,7.2-3.7
		c0.2,0,0.4,0,0.5,0c2.6,0,5.2,1,7,2.9C58.4,44.4,59.4,47.6,58.9,50.8z" fill="#4338ca" class="color000000 svgShape"></path><path d="M29,27.6c-0.4-0.4-1-0.4-1.4,0s-0.4,1,0,1.4l7.5,7.5c0.2,0.2,0.5,0.3,0.7,0.3s0.5-0.1,0.7-0.3c0.4-0.4,0.4-1,0-1.4L29,27.6
		z" fill="#4338ca" class="color000000 svgShape"></path></svg>