<svg xmlns="http://www.w3.org/2000/svg" viewBox="0 0 32 32" id="Shower"><g color="#000" font-family="sans-serif" font-weight="400" fill="#000000" class="color000000 svgShape"><path style="line-height:normal;text-indent:0;text-align:start;text-decoration-line:none;text-decoration-style:solid;text-decoration-color:#000;text-transform:none;block-progression:tb;isolation:auto;mix-blend-mode:normal" fill="#4f42f0" fill-rule="evenodd" d="M-200 2.362v1h1v-1h-1zm2 0v1h1v-1h-1zm2 0v1h1v-1h-1z" overflow="visible" transform="translate(217 6.638)" class="colorf05542 svgShape"></path><path style="line-height:normal;text-indent:0;text-align:start;text-decoration-line:none;text-decoration-style:solid;text-decoration-color:#000;text-transform:none;block-progression:tb;isolation:auto;mix-blend-mode:normal" fill="#4338ca" d="M-195.617-3.638A2.391 2.391 0 0 0-198-1.25v.5h1v-.5c0-.777.609-1.387 1.383-1.387h4.234c.774 0 1.383.61 1.383 1.387v10.2h1v-10.2a2.391 2.391 0 0 0-2.383-2.387h-4.234zM-215 11.452v4.91c0 2.208 1.793 4 4 4h20c2.207 0 4-1.792 4-4v-4.91h-1v4.91c0 1.67-1.33 3-3 3h-20c-1.67 0-3-1.33-3-3v-4.91h-1z" overflow="visible" transform="translate(217 6.638)" class="color2b4255 svgShape"></path><path style="line-height:normal;text-indent:0;text-align:start;text-decoration-line:none;text-decoration-style:solid;text-decoration-color:#000;text-transform:none;block-progression:tb;isolation:auto;mix-blend-mode:normal" fill="#4f42f0" d="M-209 5.362c-.935 0-1.61.708-1.824 1.58-.067.012-.13.03-.196.047-.461-.658-1.156-1.125-1.978-1.127H-213a2.508 2.508 0 0 0-2.5 2.5v.5h1v-.5c0-.834.666-1.5 1.5-1.5a1.496 1.496 0 0 1 1.36.875l.218.475.465-.238a1 1 0 0 1 .457-.112h.5v-.5c0-.558.442-1 1-1 .453 0 .846.301.965.739l.146.537.52-.205a.997.997 0 0 1 1.334.668l.146.537.52-.205c.117-.047.242-.07.367-.07.126 0 .25.024.37.072l.52.207.147-.541a.996.996 0 0 1 .965-.739c.558 0 1 .442 1 1v.5h1v-.5c0-1.098-.901-2-2-2-.727 0-1.304.457-1.654 1.067-.116-.021-.226-.066-.344-.067H-205c-.119 0-.23.046-.346.067-.35-.61-.927-1.067-1.654-1.067-.119 0-.23.046-.346.067-.35-.61-.927-1.067-1.654-1.067z" overflow="visible" transform="translate(217 6.638)" class="colorf05542 svgShape"></path><path style="line-height:normal;text-indent:0;text-align:start;text-decoration-line:none;text-decoration-style:solid;text-decoration-color:#000;text-transform:none;block-progression:tb;isolation:auto;mix-blend-mode:normal" fill="#4338ca" fill-rule="evenodd" d="M-211 19.362v2h1v-2h-1zm19 0v2h1v-2h-1z" overflow="visible" transform="translate(217 6.638)" class="color2b4255 svgShape"></path><path style="line-height:normal;text-indent:0;text-align:start;text-decoration-line:none;text-decoration-style:solid;text-decoration-color:#000;text-transform:none;block-progression:tb;isolation:auto;mix-blend-mode:normal" fill="#4338ca" d="M-215 8.362c-.545 0-1 .455-1 1v2c0 .546.455 1 1 1h28c.545 0 1-.454 1-1v-2c0-.545-.455-1-1-1h-28zm0 1h28v2h-28v-2zm14-6.918v-.5a3.6 3.6 0 0 1 1.746-3.1 3.435 3.435 0 0 1 3.51 0 3.598 3.598 0 0 1 1.744 3.1v.5h-7zm1.13-1h4.74c-.145-.716-.502-1.37-1.126-1.74a2.421 2.421 0 0 0-2.488 0c-.624.37-.98 1.024-1.125 1.74z" overflow="visible" transform="translate(217 6.638)" class="color2b4255 svgShape"></path><path style="line-height:normal;text-indent:0;text-align:start;text-decoration-line:none;text-decoration-style:solid;text-decoration-color:#000;text-transform:none;block-progression:tb;isolation:auto;mix-blend-mode:normal" fill="#4f42f0" fill-rule="evenodd" d="M-200 4.362v1h1v-1h-1zm2 0v1h1v-1h-1zm2 0v1h1v-1h-1zm-4 2v1h1v-1h-1zm2 0v1h1v-1h-1zm2 0v1h1v-1h-1z" overflow="visible" transform="translate(217 6.638)" class="colorf05542 svgShape"></path></g></svg>