<svg xmlns="http://www.w3.org/2000/svg" enable-background="new 0 0 67 67" viewBox="0 0 67 67" id="TechSupport"><path fill="#ffffff" d="M54.71658,48.7295v15.73487H2.40255V48.7295c0-4.31829,3.50519-7.82347,7.82348-7.82347h11.76821
		l6.65875,4.39521l6.4719-4.39521H46.8931C51.2114,40.90603,54.71658,44.41121,54.71658,48.7295z" class="colorffffff svgShape"></path><polygon fill="#9691ce" points="31.279 47.29 30.433 49.598 26.697 49.598 25.873 47.356 28.653 45.301" class="color919bce svgShape"></polygon><path fill="#9691ce" d="M31.32663 55.8278c-.8461.8021-1.75813 1.58228-2.75801 2.31846-.99995-.74718-1.92291-1.52735-2.76901-2.34046l.89003-6.20827h3.74696L31.32663 55.8278zM39.88929 17.64038c-1.04517.38116-2.16402.59024-3.34443.59024-3.30751 0-6.22154-1.64764-7.9798-4.18052-1.75825 2.53288-4.67229 4.18052-7.9798 4.18052-1.1804 0-2.29926-.20908-3.34443-.59024.6517-5.68054 5.47153-10.09459 11.32422-10.09459 3.14766 0 6.00023 1.27871 8.06588 3.34435C38.4015 12.6607 39.59414 15.00912 39.88929 17.64038zM65.50027 38.38792v-3.62326l-2.61118-.60722c-.1923-.69834-.46558-1.36628-.81978-1.97356l1.41693-2.27717-2.56059-2.56052-2.26704 1.41687c-.61735-.34407-1.28536-.61735-1.97356-.81978l-.60722-2.60105h-3.62326l-.60722 2.60105c-.69834.20243-1.35621.47571-1.97356.81978l-2.26704-1.41687-2.57072 2.56052 1.41693 2.28731c-.34414.60728-.61735 1.26509-.81978 1.96343l-2.60105.60722v3.62326l2.61118.60728c.1923.68821.46552 1.34602.80965 1.96343l-1.41693 2.27717 2.57072 2.56052 2.27718-1.41693c.60722.34413 1.26509.62754 1.96343.81984l.60722 2.61111h3.62326l.60722-2.61111c.6882-.1923 1.35621-.47571 1.96343-.81984l2.27717 1.41693 2.56059-2.56052-1.41693-2.27717c.3542-.61742.62748-1.27523.81978-1.96343L65.50027 38.38792zM54.26617 42.22374c-3.12729 0-5.65748-2.53019-5.65748-5.64741 0-3.12735 2.5302-5.65754 5.65748-5.65754 3.11721 0 5.64741 2.5302 5.64741 5.65754C59.91358 39.69354 57.38339 42.22374 54.26617 42.22374z" class="color919bce svgShape"></path><path fill="#4338ca" d="M12.27602 8.22058c.21729-.17041.25537-.48438.08447-.70166-.17041-.21777-.48486-.25586-.70166-.08447-4.7793 3.75146-8.45313 8.7168-10.62549 14.35889-.09912.25781.0293.54688.28711.64648.25882.0984.54713-.02954.64648-.28711C4.07387 16.67859 7.63881 11.86121 12.27602 8.22058zM46.03432 4.37391c6.38965 3.00439 11.7168 8.11621 15.00098 14.39307.12907.24615.4327.33836.6748.21094.24463-.12793.33887-.43018.21094-.6748C58.53676 11.83435 53.04555 6.5658 46.4601 3.46863c-.25049-.11719-.54736-.01025-.66553.23975C45.67738 3.95838 45.78432 4.25623 46.03432 4.37391z" class="color4358a7 svgShape"></path><path fill="#4338ca" d="M65.61342,34.27771l-2.32617-0.54102c-0.16846-0.54395-0.38232-1.05957-0.6377-1.53906l1.26123-2.02686
			c0.12305-0.19727,0.09375-0.45361-0.0708-0.61768l-2.56104-2.56055c-0.07483-0.0744-0.16907-0.11713-0.26721-0.13452
			C58.22646,15.43549,48.74037,6.344,36.76137,4.52283c-2.24952-1.5153-5.00111-2.4226-7.88135-2.48358
			C23.48211,1.924,18.73153,4.68321,16.06508,9.01697C7.67934,14.5033,2.67641,23.74939,2.67641,33.77283
			c0,3.2323,0.54309,6.33411,1.51123,9.24481c-1.41223,1.49237-2.28516,3.50031-2.28516,5.71222v15.73438
			c0,0.27637,0.22363,0.5,0.5,0.5h52.31396c0.27637,0,0.5-0.22363,0.5-0.5V52.36298c1.69971-2.0907,3.12817-4.40479,4.21173-6.90936
			l1.23309,0.76746c0.19678,0.12207,0.45264,0.09473,0.61768-0.07129l2.56104-2.56055
			c0.16455-0.16406,0.19385-0.41992,0.0708-0.61719l-1.26221-2.0293c0.25684-0.48438,0.47021-0.99609,0.63721-1.52637
			l2.32764-0.54102c0.22656-0.05273,0.38672-0.25488,0.38672-0.4873v-3.62305C66.00014,34.5326,65.83998,34.33045,65.61342,34.27771
			z M60.09334,27.27668l-1.45355,0.90875c-0.48047-0.24805-0.99414-0.46045-1.53271-0.63525l-0.54248-2.32178
			c-0.05273-0.22607-0.25439-0.38623-0.48682-0.38623h-3.62305c-0.23242,0-0.43408,0.16016-0.48682,0.38623l-0.54199,2.3208
			c-0.5332,0.17139-1.04639,0.38428-1.5332,0.63623l-2.021-1.26318c-0.19727-0.12354-0.45313-0.09375-0.61816,0.06982
			l-2.57031,2.56055c-0.16455,0.16357-0.19434,0.41943-0.07227,0.61719l1.26367,2.04053
			c-0.25049,0.47949-0.46338,0.99023-0.63574,1.52539l-2.32031,0.54199c-0.22607,0.05371-0.38623,0.25488-0.38623,0.4873v3.62305
			c0,0.23242,0.16016,0.43457,0.38672,0.4873l2.32764,0.54102c0.1059,0.3363,0.23767,0.66498,0.38098,0.98926
			c-2.41452,0-7.71798,0-10.00256,0v-4.72693c2.43335-1.80273,4.15228-4.50446,4.66553-7.61536h0.37012
			c2.94141,0,5.33447-2.39307,5.33447-5.33447c0-2.00421-1.12421-3.73279-2.7627-4.64429v-1.39868
			c0-4.03488-1.62801-7.94197-4.79639-10.82611C49.20479,8.23499,57.60048,16.74146,60.09334,27.27668z M31.67928,54.75891
			l-0.73083-5.11542l0.56549-1.54224l3.38013,2.5675C34.00789,52.09381,32.93904,53.46344,31.67928,54.75891z M28.89217,3.03992
			c7.56122,0.17988,13.33698,6.3806,13.33698,13.64746v0.96948c-1.08324-0.33631-1.67989-0.24738-1.87244-0.26245
			c-0.7498-5.81068-5.71104-10.34863-11.79163-10.34863c-5.98535,0-11.0163,4.43683-11.79016,10.34863h-0.30554
			c-0.54944,0-1.06921,0.10748-1.56836,0.26245v-0.96948C14.90102,9.16981,21.06183,2.8565,28.89217,3.03992z M40.46303,26.12439
			c0-0.10452,0-7.8513,0-7.72998h0.19775c2.39014,0,4.33447,1.94434,4.33447,4.33447s-1.94434,4.33447-4.33447,4.33447h-0.19775
			V26.12439z M28.56508,8.04578c5.44097,0,9.97191,3.98253,10.76587,9.25568c-0.90192,0.28467-1.83704,0.42938-2.78589,0.42938
			c-3.01563,0-5.84521-1.48242-7.56934-3.96582c-0.09326-0.13477-0.24658-0.21484-0.41064-0.21484s-0.31738,0.08008-0.41064,0.21484
			c-1.72412,2.4834-4.55371,3.96582-7.56934,3.96582c-0.94836,0-1.88257-0.14484-2.78351-0.42859
			C18.63024,11.84014,23.3193,8.04578,28.56508,8.04578z M16.46938,18.39441h0.19775v0.54932v7.18066v0.93896h-0.19775
			c-2.39014,0-4.33447-1.94434-4.33447-4.33447S14.07924,18.39441,16.46938,18.39441z M17.66713,18.94373
			c0-0.21594,0.02374-0.42334,0.03577-0.63342c0.93604,0.27435,1.90143,0.42053,2.8822,0.42053
			c3.11377,0,6.04785-1.42529,7.97998-3.84424c1.93213,2.41895,4.86621,3.84424,7.97998,3.84424
			c0.98041,0,1.94586-0.14624,2.8822-0.42059c0.06921,1.20358,0.00663-1.54267,0.03577,7.81415
			c0,0.40228-0.02551,0.7984-0.06818,1.18951l-3.4162,1.97211h-4.16718c-0.57654-1.24774-3.18793-1.92725-4.12531-1.92725
			c-1.33838,0-2.42725,1.08887-2.42725,2.42725s1.08887,2.42725,2.42725,2.42725c0.93744,0,3.54901-0.67926,4.12537-1.92725h4.3009
			c0.08789,0,0.17383-0.02295,0.25-0.06689l2.80621-1.61981c-1.12518,4.8186-5.44678,8.42255-10.60358,8.42255
			c-6.00928,0-10.89795-4.88867-10.89795-10.89746V18.94373z M30.92982,29.78601c0,0.56006-2.15479,1.42725-3.24365,1.42725
			c-0.78711,0-1.42725-0.64063-1.42725-1.42725c0-0.78711,0.64014-1.42725,1.42725-1.42725
			C28.77504,28.35877,30.92982,29.22596,30.92982,29.78601z M30.08412,49.09705h-3.03809l-0.57343-1.55933l2.17645-1.61255
			l2.03198,1.54346L30.08412,49.09705z M28.56508,38.02185c2.2146,0,4.28247-0.61926,6.06006-1.67731v4.29596l-5.97607,4.05908
			l-6.15479-4.06348v-4.2981C24.27425,37.40009,26.34596,38.02185,28.56508,38.02185z M21.84438,41.40564l5.93604,3.91833
			l-2.20459,1.62952c-0.00342,0.0025-0.0036,0.00726-0.00696,0.00989l-3.85034,2.8526
			c-1.48474-2.65063-2.34045-5.4845-2.49084-8.41034H21.84438z M25.63527,48.15808l0.54333,1.47833l-0.73395,5.11945
			c-1.25909-1.28827-2.32635-2.65381-3.21271-4.07623L25.63527,48.15808z M26.33192,55.61615l0.79126-5.5191h2.87988
			l0.79065,5.53473c-0.75292,0.70359-1.40282,1.26463-2.22498,1.8877C27.86701,56.981,26.82724,56.08156,26.33192,55.61615z
			 M35.40639,49.8031l-3.81793-2.8999c-0.00372-0.00299-0.00397-0.00836-0.00775-0.01123l-2.07037-1.56836l5.76904-3.91797h2.62213
			C37.74513,44.3238,36.88905,47.15174,35.40639,49.8031z M15.07185,10.94068c-0.77025,1.80537-1.17572,3.89212-1.17572,5.74524
			v1.39948c-1.6377,0.91174-2.76123,2.63989-2.76123,4.64349c0,2.94141,2.39307,5.33447,5.33447,5.33447h0.37012
			c0.51245,3.10632,2.22717,5.80457,4.65479,7.6073v4.73499c-3.24655,0-7.58776,0-11.26807,0
			c-1.97723,0-3.79333,0.69586-5.22284,1.85175c-0.84271-2.68445-1.32697-5.52545-1.32697-8.48456
			C3.67641,24.71997,7.90352,16.32746,15.07185,10.94068z M54.21645,63.96424h-9.17383V59.1283c0-0.27637-0.22363-0.5-0.5-0.5
			s-0.5,0.22363-0.5,0.5v4.83594H13.0768V59.1283c0-0.27637-0.22363-0.5-0.5-0.5s-0.5,0.22363-0.5,0.5v4.83594H2.90248V48.72986
			c0-4.03906,3.28564-7.32422,7.32373-7.32422h8.0191c0.15814,3.23462,1.1026,6.36377,2.80072,9.26514
			c0.01379,0.07117,0.03937,0.14056,0.08545,0.20264c0.02533,0.03418,0.06177,0.05225,0.09338,0.078
			c1.83469,3.03205,4.21782,5.48608,7.04089,7.59485c0.08887,0.06641,0.19385,0.09961,0.29932,0.09961
			c0.00061,0,0.0011-0.00055,0.00171-0.00055s0.0011,0.00055,0.00171,0.00055c0.104,0,0.20801-0.03223,0.29639-0.09766
			c2.73316-2.00877,5.20223-4.58284,7.01135-7.56525c0.04315-0.02954,0.08569-0.06091,0.11902-0.10468
			c0.05121-0.06738,0.07623-0.14392,0.08899-0.22198c1.69171-2.89856,2.63531-6.02277,2.79974-9.25067h6.70184l-0.97437,1.56641
			c-0.12256,0.19727-0.09277,0.45313,0.07178,0.61816l2.57031,2.56055c0.16504,0.16406,0.4209,0.19238,0.61719,0.07031
			l2.0293-1.2627c0.49756,0.26172,1.00879,0.47559,1.52637,0.63867l0.5415,2.32617c0.05273,0.22656,0.25439,0.38672,0.48682,0.38672
			h1.74261c0.00916,0.13928,0.0191,0.27832,0.0191,0.41992V63.96424z M55.19667,48.30994h0.8811
			c0.23242,0,0.43408-0.16016,0.48682-0.38672l0.54199-2.32715c0.48914-0.15454,0.96667-0.35565,1.43005-0.59259
			c-0.88312,2.05603-2.0022,3.98376-3.32019,5.75891v-2.03253C55.21645,48.58826,55.20479,48.44953,55.19667,48.30994z
			 M65.00014,37.9906l-2.22412,0.51758c-0.17773,0.04199-0.31885,0.17676-0.36816,0.35254
			c-0.18262,0.65137-0.44189,1.27344-0.77197,1.84863c-0.0918,0.16016-0.08838,0.35645,0.00928,0.5127l1.20703,1.94043l-1.99951,2
			l-1.93994-1.20801c-0.1543-0.0957-0.35156-0.10059-0.51074-0.00977c-0.59033,0.33496-1.21289,0.59473-1.85156,0.77344
			c-0.17578,0.04883-0.31104,0.19043-0.35205,0.36816l-0.51758,2.22363h-2.8291l-0.51758-2.22363
			c-0.0415-0.17871-0.17725-0.32031-0.354-0.36914c-0.62842-0.17285-1.25049-0.43262-1.84961-0.77246
			c-0.16016-0.0918-0.35596-0.08691-0.51074,0.00977l-1.94092,1.20801l-2.00781-2l1.20654-1.94043
			c0.0957-0.1543,0.10059-0.34863,0.01221-0.50684c-0.32813-0.58887-0.58545-1.21289-0.76514-1.85449
			c-0.04932-0.17578-0.19043-0.31055-0.36816-0.35254l-2.22412-0.51758v-2.8291l2.21436-0.5166
			c0.17578-0.04199,0.31592-0.1748,0.36621-0.34766c0.19287-0.66504,0.45361-1.29004,0.7749-1.85742
			c0.08984-0.15918,0.08594-0.35449-0.00977-0.50977l-1.20752-1.94922l2.00781-2.00049l1.93018,1.20654
			c0.15479,0.09717,0.3501,0.10303,0.5083,0.0127c0.58105-0.32373,1.20996-0.58447,1.86963-0.77637
			c0.17383-0.05029,0.30664-0.19043,0.34766-0.36621l0.51709-2.21484h2.83008l0.51709,2.21484
			c0.04102,0.17529,0.17285,0.31494,0.3457,0.36572c0.67188,0.19824,1.30127,0.45947,1.87158,0.77686
			c0.15918,0.08936,0.35303,0.08447,0.5083-0.0127l1.9292-1.20605l1.99902,1.99854l-1.20703,1.94092
			c-0.09814,0.15723-0.10107,0.35547-0.00781,0.51563c0.32568,0.55859,0.58496,1.18262,0.77002,1.85449
			c0.04883,0.17676,0.18994,0.3125,0.36865,0.35449l2.22412,0.51758V37.9906z" class="color4358a7 svgShape"></path><path fill="#4338ca" d="M54.26625 30.41834c-3.39551 0-6.15771 2.7627-6.15771 6.1582 0 3.38965 2.76221 6.14746 6.15771 6.14746 3.38965 0 6.14746-2.75781 6.14746-6.14746C60.41371 33.18103 57.6559 30.41834 54.26625 30.41834zM54.26625 41.724c-2.84375 0-5.15771-2.30957-5.15771-5.14746 0-2.84473 2.31396-5.1582 5.15771-5.1582 2.83838 0 5.14746 2.31348 5.14746 5.1582C59.41371 39.41443 57.10463 41.724 54.26625 41.724zM57.56654 56.13611c-.27637 0-.5.22363-.5.5v6.22949c0 .27637.22363.5.5.5s.5-.22363.5-.5v-6.22949C58.06654 56.35975 57.84291 56.13611 57.56654 56.13611z" class="color4358a7 svgShape"></path></svg>